HIERARCHY
ROOT Hips
{
    OFFSET 0.000000 0.000000 0.000000
    CHANNELS 6 Xposition Yposition Zposition Zrotation Xrotation Yrotation
    JOINT Spine
    {
        OFFSET -0.000000 8.267054 0.000000
        CHANNELS 3 Zrotation Xrotation Yrotation
        JOINT Spine1
        {
            OFFSET -0.000000 23.684998 0.000000
            CHANNELS 3 Zrotation Xrotation Yrotation
            JOINT Neck
            {
                OFFSET -0.000000 23.587730 2.144339
                CHANNELS 3 Zrotation Xrotation Yrotation
                JOINT Head
                {
                    OFFSET -0.000000 14.114483 -2.016355
                    CHANNELS 3 Zrotation Xrotation Yrotation
                    End Site
                    {
                        OFFSET -0.000000 25.204432 0.000000
                    }
                }
            }
            JOINT LeftShoulder
            {
                OFFSET 4.070090 22.062094 -0.247321
                CHANNELS 3 Zrotation Xrotation Yrotation
                JOINT LeftArm
                {
                    OFFSET 10.395479 0.000000 0.000000
                    CHANNELS 3 Zrotation Xrotation Yrotation
                    JOINT LeftForeArm
                    {
                        OFFSET 37.713577 0.000000 0.000000
                        CHANNELS 3 Zrotation Xrotation Yrotation
                        JOINT LeftHand
                        {
                            OFFSET 20.284107 0.000000 0.000000
                            CHANNELS 3 Zrotation Xrotation Yrotation
                            End Site
                            {
                                OFFSET 15.122660 0.000000 0.000000
                            }
                        }
                    }
                }
            }
            JOINT RightShoulder
            {
                OFFSET -3.979272 22.062094 -0.247321
                CHANNELS 3 Zrotation Xrotation Yrotation
                JOINT RightArm
                {
                    OFFSET -10.395479 0.000000 0.000000
                    CHANNELS 3 Zrotation Xrotation Yrotation
                    JOINT RightForeArm
                    {
                        OFFSET -37.713577 0.000000 0.000000
                        CHANNELS 3 Zrotation Xrotation Yrotation
                        JOINT RightHand
                        {
                            OFFSET -20.284107 0.000000 0.000000
                            CHANNELS 3 Zrotation Xrotation Yrotation
                            End Site
                            {
                                OFFSET -15.122660 0.000000 0.000000
                            }
                        }
                    }
                }
            }
        }
    }
    JOINT LeftUpLeg
    {
        OFFSET 10.081773 0.000000 0.000000
        CHANNELS 3 Zrotation Xrotation Yrotation
        JOINT LeftLeg
        {
            OFFSET -0.000000 -36.382099 0.000000
            CHANNELS 3 Zrotation Xrotation Yrotation
            JOINT LeftFoot
            {
                OFFSET -0.000000 -49.182560 0.000000
                CHANNELS 3 Zrotation Xrotation Yrotation
                JOINT LeftToeBase
                {
                    OFFSET -0.000000 -6.553152 15.122660
                    CHANNELS 3 Zrotation Xrotation Yrotation
                    End Site
                    {
                        OFFSET -0.000000 0.000000 4.032709
                    }
                }
            }
        }
    }
    JOINT RightUpLeg
    {
        OFFSET -10.081773 0.000000 0.000000
        CHANNELS 3 Zrotation Xrotation Yrotation
        JOINT RightLeg
        {
            OFFSET -0.000000 -36.382099 0.000000
            CHANNELS 3 Zrotation Xrotation Yrotation
            JOINT RightFoot
            {
                OFFSET -0.000000 -49.182560 0.000000
                CHANNELS 3 Zrotation Xrotation Yrotation
                JOINT RightToeBase
                {
                    OFFSET -0.000000 -6.553152 15.122660
                    CHANNELS 3 Zrotation Xrotation Yrotation
                    End Site
                    {
                        OFFSET -0.000000 0.000000 4.032709
                    }
                }
            }
        }
    }
}
MOTION
Frames:    10
Frame Time:    0.008333
28.516949    91.478523    -65.872238    7.070418    -0.072906    9.083852    4.733894    -7.328312    -0.162721    0.015172    2.294951    -0.466631    -1.304008    22.302462    -14.910745    5.968316    9.899648    -15.285967    7.266887    10.581669    -6.092587    -59.663395    58.980324    -20.719101    4.662875    -15.967696    -23.316437    -3.004817    -15.130797    3.574729    -4.084121    6.912121    -4.088892    70.100128    46.009739    5.032666    -2.805156    -16.563240    24.851498    3.993877    -16.161892    -5.724417    -4.936720    -25.966696    -5.409412    1.884073    57.962177    13.721331    2.298696    -3.813944    -6.885999    0.000000    0.000000    0.000000    1.392089    -10.286674    -9.208403    2.330785    27.585669    -3.331666    -7.400082    -13.812839    -6.698102    0.000000    0.000000    0.000000    
28.414625    91.519096    -65.305801    7.059707    -0.099155    8.703220    4.635915    -7.347093    0.018838    -0.054725    2.284729    -0.278230    -1.371299    22.370016    -14.905932    6.061720    9.960865    -15.284237    7.240482    10.619584    -5.983752    -59.917568    58.793159    -20.370163    4.527660    -16.017977    -23.212109    -2.747946    -15.206132    3.638191    -4.094777    6.935461    -3.990535    69.767517    46.172554    5.451686    -2.853199    -16.567097    25.572803    4.009272    -16.139519    -5.764040    -5.087326    -26.417175    -5.433463    2.204181    56.857525    13.221498    2.544016    -3.815987    -6.749846    0.000000    0.000000    0.000000    1.566240    -9.642301    -9.234585    2.215433    27.116846    -2.970003    -7.185117    -13.900345    -6.597059    0.000000    0.000000    0.000000    
28.311432    91.556717    -64.738281    7.047829    -0.117536    8.329143    4.549550    -7.376928    0.193646    -0.136073    2.273865    -0.097007    -1.434114    22.431126    -14.900949    6.145535    10.022620    -15.282701    7.218586    10.654038    -5.873285    -60.172939    58.621765    -20.018877    4.380912    -16.068256    -23.116785    -2.491636    -15.282792    3.697852    -4.098986    6.957477    -3.895404    69.431526    46.310200    5.861059    -2.918030    -16.579855    26.293196    4.041448    -16.123163    -5.822996    -5.248783    -26.836134    -5.461528    2.420723    55.665230    12.688549    2.691913    -3.739544    -6.665920    0.000000    0.000000    0.000000    1.742564    -9.004169    -9.237439    2.106038    26.643538    -2.645796    -6.967086    -13.980476    -6.500400    0.000000    0.000000    0.000000    
28.207428    91.591003    -64.169518    7.032336    -0.127081    7.964507    4.477470    -7.418808    0.360475    -0.228457    2.261436    0.075462    -1.494418    22.489309    -14.891318    6.224133    10.078935    -15.276245    7.199430    10.685075    -5.764084    -60.431683    58.465042    -19.661322    4.220488    -16.118683    -23.031389    -2.228580    -15.361291    3.764647    -4.099788    6.973867    -3.799237    69.101265    46.418835    6.250377    -2.998033    -16.595554    27.008671    4.091256    -16.106863    -5.895129    -5.418435    -27.226110    -5.500012    2.531906    54.396702    12.135813    2.745904    -3.592375    -6.625897    0.000000    0.000000    0.000000    1.921758    -8.372790    -9.223024    2.002304    26.165686    -2.356473    -6.743120    -14.053530    -6.403788    0.000000    0.000000    0.000000    
28.106522    91.620468    -63.620602    7.011380    -0.127949    7.624570    4.425013    -7.470726    0.513607    -0.328349    2.248265    0.230994    -1.549024    22.541233    -14.878796    6.291902    10.129664    -15.266701    7.183051    10.711891    -5.661376    -60.683578    58.328331    -19.311468    4.049839    -16.169022    -22.958851    -1.957692    -15.440526    3.834872    -4.097673    6.980802    -3.704011    68.792358    46.495304    6.601491    -3.086514    -16.607988    27.684767    4.152228    -16.086042    -5.971098    -5.586875    -27.576027    -5.553574    2.535393    53.112873    11.613166    2.716052    -3.387408    -6.629856    0.000000    0.000000    0.000000    2.098707    -7.770627    -9.192667    1.909565    25.700323    -2.114345    -6.521198    -14.115572    -6.306839    0.000000    0.000000    0.000000    
28.000536    91.647263    -63.048351    6.981856    -0.119550    7.284655    4.387643    -7.537646    0.663051    -0.440757    2.234225    0.382542    -1.601368    22.590570    -14.864205    6.352524    10.178215    -15.255177    7.167372    10.737099    -5.558017    -60.946815    58.199966    -18.944218    3.861146    -16.215651    -22.888191    -1.668039    -15.518140    3.891968    -4.094621    6.979200    -3.602354    68.479126    46.550991    6.944632    -3.186531    -16.617456    28.369589    4.221802    -16.058704    -6.050778    -5.765494    -27.917156    -5.626438    2.442353    51.720257    11.113720    2.599435    -3.105359    -6.684052    0.000000    0.000000    0.000000    2.288438    -7.151216    -9.154192    1.816019    25.211773    -1.888184    -6.285443    -14.169181    -6.202572    0.000000    0.000000    0.000000    
27.892494    91.669960    -62.470089    6.942704    -0.101554    6.959299    4.367995    -7.618841    0.802761    -0.560859    2.220371    0.522711    -1.649042    22.638754    -14.848309    6.404335    10.217058    -15.241928    7.153052    10.760154    -5.457635    -61.213787    58.085575    -18.571280    3.677154    -16.240528    -22.813580    -1.408054    -15.573249    3.919000    -4.092192    6.969455    -3.497106    68.171997    46.584991    7.268718    -3.294512    -16.622667    29.034079    4.296381    -16.024576    -6.124280    -5.947039    -28.236803    -5.712358    2.259099    50.259575    10.689972    2.387377    -2.762702    -6.798206    0.000000    0.000000    0.000000    2.487472    -6.535591    -9.119434    1.718716    24.718224    -1.670383    -6.039237    -14.209344    -6.098855    0.000000    0.000000    0.000000    
27.788179    91.687294    -61.915134    6.896361    -0.075545    6.666808    4.365764    -7.710483    0.925790    -0.680926    2.210009    0.644517    -1.692203    22.681194    -14.832542    6.448349    10.247371    -15.228412    7.140932    10.779355    -5.366167    -61.469685    57.992161    -18.214350    3.515891    -16.237547    -22.734989    -1.208550    -15.597484    3.920699    -4.091130    6.950616    -3.396054    67.887230    46.598896    7.557841    -3.403481    -16.622473    29.638294    4.368707    -15.984860    -6.187719    -6.122369    -28.519133    -5.804258    2.007711    48.815002    10.391922    2.108197    -2.399765    -6.966455    0.000000    0.000000    0.000000    2.685021    -5.956425    -9.093417    1.622441    24.250175    -1.464988    -5.798381    -14.233850    -6.005481    0.000000    0.000000    0.000000    
27.683353    91.700348    -61.359108    6.843174    -0.041584    6.394026    4.377314    -7.814805    1.037452    -0.804984    2.202584    0.753689    -1.738235    22.715771    -14.814410    6.492424    10.281201    -15.212733    7.129988    10.796649    -5.278429    -61.722904    57.915485    -17.862223    3.366081    -16.212620    -22.646486    -1.049755    -15.598763    3.904981    -4.091026    6.925220    -3.295088    67.607872    46.597946    7.831459    -3.515406    -16.617805    30.208555    4.434567    -15.939455    -6.251006    -6.302014    -28.780621    -5.904793    1.700364    47.345242    10.203878    1.774556    -2.017004    -7.174042    0.000000    0.000000    0.000000    2.886476    -5.389731    -9.070243    1.528238    23.795351    -1.253294    -5.557764    -14.243549    -5.934794    0.000000    0.000000    0.000000    
27.577198    91.709305    -60.795986    6.784698    -0.000540    6.137456    4.400030    -7.931510    1.140113    -0.932448    2.197937    0.852726    -1.787766    22.741190    -14.793995    6.536433    10.322899    -15.195253    7.119801    10.811393    -5.195403    -61.977020    57.855968    -17.512129    3.223896    -16.169838    -22.544104    -0.923445    -15.581808    3.875236    -4.092870    6.895088    -3.194796    67.331200    46.583153    8.093562    -3.625329    -16.610338    30.751266    4.482092    -15.890809    -6.321397    -6.490290    -29.024092    -6.003872    1.355037    45.849041    10.118708    1.399730    -1.618991    -7.401919    0.000000    0.000000    0.000000    3.090581    -4.830904    -9.044100    1.439510    23.354668    -1.039191    -5.315925    -14.237528    -5.879805    0.000000    0.000000    0.000000    
